<svg width="20" height="18" viewBox="0 0 20 18" fill="none" xmlns="http://www.w3.org/2000/svg">
<path d="M8.75 1.5V1.1875C8.75 0.67125 8.3275 0.25 7.8125 0.25H4.6875C4.17125 0.25 3.75 0.67125 3.75 1.1875V1.5H0V4H3.75V4.3125C3.75 4.8275 4.17125 5.25 4.6875 5.25H7.8125C8.3275 5.25 8.75 4.8275 8.75 4.3125V4H20V1.5H8.75ZM5 4V1.5H7.5V4H5ZM16.25 7.4375C16.25 6.9225 15.8275 6.5 15.3125 6.5H12.1875C11.6725 6.5 11.25 6.9225 11.25 7.4375V7.75H0V10.25H11.25V10.5625C11.25 11.0775 11.6725 11.5 12.1875 11.5H15.3125C15.8275 11.5 16.25 11.0775 16.25 10.5625V10.25H20V7.75H16.25V7.4375ZM12.5 10.25V7.75H15V10.25H12.5ZM8.75 13.6875C8.75 13.1725 8.3275 12.75 7.8125 12.75H4.6875C4.17125 12.75 3.75 13.1725 3.75 13.6875V14H0V16.5H3.75V16.8125C3.75 17.3275 4.17125 17.75 4.6875 17.75H7.8125C8.3275 17.75 8.75 17.3275 8.75 16.8125V16.5H20V14H8.75V13.6875ZM5 16.5V14H7.5V16.5H5Z" fill="#00303F"/>
</svg>
