<svg width="26" height="27" viewBox="0 0 26 27" fill="none" xmlns="http://www.w3.org/2000/svg">
<path d="M8.69637 20.9566C8.69637 21.0621 8.57581 21.1465 8.42379 21.1465C8.25081 21.1623 8.13024 21.0779 8.13024 20.9566C8.13024 20.8512 8.25081 20.7668 8.40282 20.7668C8.56008 20.751 8.69637 20.8354 8.69637 20.9566ZM7.06613 20.7193C7.02944 20.8248 7.13427 20.9461 7.29153 20.9777C7.42782 21.0305 7.58508 20.9777 7.61653 20.8723C7.64798 20.7668 7.54839 20.6455 7.39113 20.598C7.25484 20.5611 7.10282 20.6139 7.06613 20.7193ZM9.38306 20.6297C9.23105 20.6666 9.12621 20.7668 9.14193 20.8881C9.15766 20.9936 9.29395 21.0621 9.45121 21.0252C9.60323 20.9883 9.70806 20.8881 9.69234 20.7826C9.67661 20.6824 9.53508 20.6139 9.38306 20.6297ZM12.8323 0.421875C5.56169 0.421875 0 5.97481 0 13.2891C0 19.1373 3.65887 24.1418 8.88508 25.9031C9.55605 26.0244 9.79194 25.6078 9.79194 25.265C9.79194 24.9381 9.77621 23.1346 9.77621 22.0272C9.77621 22.0272 6.10685 22.8182 5.33629 20.4557C5.33629 20.4557 4.73871 18.9211 3.87903 18.5256C3.87903 18.5256 2.67863 17.6977 3.9629 17.7135C3.9629 17.7135 5.26814 17.8189 5.98629 19.074C7.13427 21.1096 9.05806 20.5242 9.80766 20.1762C9.92823 19.3324 10.269 18.7471 10.6464 18.399C7.71613 18.0721 4.75968 17.6449 4.75968 12.5719C4.75968 11.1217 5.15806 10.3939 5.99677 9.46582C5.86048 9.12305 5.41492 7.70977 6.13306 5.88516C7.22863 5.54238 9.75 7.30899 9.75 7.30899C10.7984 7.01367 11.9254 6.86074 13.0419 6.86074C14.1585 6.86074 15.2855 7.01367 16.3339 7.30899C16.3339 7.30899 18.8552 5.53711 19.9508 5.88516C20.669 7.71504 20.2234 9.12305 20.0871 9.46582C20.9258 10.3992 21.4395 11.127 21.4395 12.5719C21.4395 17.6607 18.352 18.0668 15.4218 18.399C15.904 18.8156 16.3129 19.6066 16.3129 20.8459C16.3129 22.623 16.2972 24.8221 16.2972 25.2545C16.2972 25.5973 16.5383 26.0139 17.204 25.8926C22.446 24.1418 26 19.1373 26 13.2891C26 5.97481 20.1028 0.421875 12.8323 0.421875ZM5.09516 18.61C5.02702 18.6627 5.04274 18.784 5.13185 18.8842C5.21573 18.9686 5.33629 19.0055 5.40444 18.9369C5.47258 18.8842 5.45685 18.7629 5.36774 18.6627C5.28387 18.5783 5.16331 18.5414 5.09516 18.61ZM4.52903 18.1828C4.49234 18.2514 4.54476 18.3357 4.6496 18.3885C4.73347 18.4412 4.83831 18.4254 4.875 18.3516C4.91169 18.283 4.85927 18.1986 4.75444 18.1459C4.6496 18.1143 4.56573 18.1301 4.52903 18.1828ZM6.22742 20.0602C6.14355 20.1287 6.175 20.2869 6.29556 20.3871C6.41613 20.5084 6.56814 20.5242 6.63629 20.4398C6.70444 20.3713 6.67298 20.2131 6.56815 20.1129C6.45282 19.9916 6.29556 19.9758 6.22742 20.0602ZM5.62984 19.285C5.54597 19.3377 5.54597 19.4748 5.62984 19.5961C5.71371 19.7174 5.85524 19.7701 5.92339 19.7174C6.00726 19.6488 6.00726 19.5117 5.92339 19.3904C5.85 19.2691 5.71371 19.2164 5.62984 19.285Z" fill="#CDAC81"/>
</svg>
