<svg width="22" height="19" viewBox="0 0 22 19" fill="none" xmlns="http://www.w3.org/2000/svg">
<path d="M20.1667 2.375H1.83333C0.820799 2.375 0 3.17248 0 4.15625V14.8438C0 15.8275 0.820799 16.625 1.83333 16.625H20.1667C21.1792 16.625 22 15.8275 22 14.8438V4.15625C22 3.17248 21.1792 2.375 20.1667 2.375ZM4.88889 12.3203V13.8047C4.88889 14.0506 4.68367 14.25 4.43056 14.25H2.90278C2.64966 14.25 2.44444 14.0506 2.44444 13.8047V12.3203C2.44444 12.0744 2.64966 11.875 2.90278 11.875H4.43056C4.68367 11.875 4.88889 12.0744 4.88889 12.3203ZM8.55556 12.3203V13.8047C8.55556 14.0506 8.35034 14.25 8.09722 14.25H6.56944C6.31633 14.25 6.11111 14.0506 6.11111 13.8047V12.3203C6.11111 12.0744 6.31633 11.875 6.56944 11.875H8.09722C8.35034 11.875 8.55556 12.0744 8.55556 12.3203ZM12.2222 12.3203V13.8047C12.2222 14.0506 12.017 14.25 11.7639 14.25H10.2361C9.983 14.25 9.77778 14.0506 9.77778 13.8047V12.3203C9.77778 12.0744 9.983 11.875 10.2361 11.875H11.7639C12.017 11.875 12.2222 12.0744 12.2222 12.3203ZM15.8889 12.3203V13.8047C15.8889 14.0506 15.6837 14.25 15.4306 14.25H13.9028C13.6497 14.25 13.4444 14.0506 13.4444 13.8047V12.3203C13.4444 12.0744 13.6497 11.875 13.9028 11.875H15.4306C15.6837 11.875 15.8889 12.0744 15.8889 12.3203ZM19.5556 12.3203V13.8047C19.5556 14.0506 19.3503 14.25 19.0972 14.25H17.5694C17.3163 14.25 17.1111 14.0506 17.1111 13.8047V12.3203C17.1111 12.0744 17.3163 11.875 17.5694 11.875H19.0972C19.3503 11.875 19.5556 12.0744 19.5556 12.3203ZM6.72222 8.75781V10.2422C6.72222 10.4881 6.517 10.6875 6.26389 10.6875H4.73611C4.483 10.6875 4.27778 10.4881 4.27778 10.2422V8.75781C4.27778 8.51189 4.483 8.3125 4.73611 8.3125H6.26389C6.517 8.3125 6.72222 8.51189 6.72222 8.75781ZM10.3889 8.75781V10.2422C10.3889 10.4881 10.1837 10.6875 9.93056 10.6875H8.40278C8.14966 10.6875 7.94444 10.4881 7.94444 10.2422V8.75781C7.94444 8.51189 8.14966 8.3125 8.40278 8.3125H9.93056C10.1837 8.3125 10.3889 8.51189 10.3889 8.75781ZM14.0556 8.75781V10.2422C14.0556 10.4881 13.8503 10.6875 13.5972 10.6875H12.0694C11.8163 10.6875 11.6111 10.4881 11.6111 10.2422V8.75781C11.6111 8.51189 11.8163 8.3125 12.0694 8.3125H13.5972C13.8503 8.3125 14.0556 8.51189 14.0556 8.75781ZM17.7222 8.75781V10.2422C17.7222 10.4881 17.517 10.6875 17.2639 10.6875H15.7361C15.483 10.6875 15.2778 10.4881 15.2778 10.2422V8.75781C15.2778 8.51189 15.483 8.3125 15.7361 8.3125H17.2639C17.517 8.3125 17.7222 8.51189 17.7222 8.75781ZM4.88889 5.19531V6.67969C4.88889 6.92561 4.68367 7.125 4.43056 7.125H2.90278C2.64966 7.125 2.44444 6.92561 2.44444 6.67969V5.19531C2.44444 4.94939 2.64966 4.75 2.90278 4.75H4.43056C4.68367 4.75 4.88889 4.94939 4.88889 5.19531ZM15.8889 5.19531V6.67969C15.8889 6.92561 15.6837 7.125 15.4306 7.125H6.56944C6.31633 7.125 6.11111 6.92561 6.11111 6.67969V5.19531C6.11111 4.94939 6.31633 4.75 6.56944 4.75H15.4306C15.6837 4.75 15.8889 4.94939 15.8889 5.19531ZM19.5556 5.19531V6.67969C19.5556 6.92561 19.3503 7.125 19.0972 7.125H17.5694C17.3163 7.125 17.1111 6.92561 17.1111 6.67969V5.19531C17.1111 4.94939 17.3163 4.75 17.5694 4.75H19.0972C19.3503 4.75 19.5556 4.94939 19.5556 5.19531Z" fill="#CDAC81"/>
</svg>
