<svg width="20" height="18" fill="none" xmlns="http://www.w3.org/2000/svg"><path d="M8.75 1.5v-.313A.94.94 0 007.812.25H4.688a.94.94 0 00-.937.938V1.5H0V4h3.75v.313a.94.94 0 00.938.937h3.125a.941.941 0 00.937-.938V4H20V1.5H8.75zM5 4V1.5h2.5V4H5zm11.25 3.438a.941.941 0 00-.938-.938h-3.124a.941.941 0 00-.938.938v.312H0v2.5h11.25v.313c0 .514.422.937.938.937h3.124a.941.941 0 00.938-.938v-.312H20v-2.5h-3.75v-.313zM12.5 10.25v-2.5H15v2.5h-2.5zm-3.75 3.438a.941.941 0 00-.938-.938H4.688a.94.94 0 00-.937.938V14H0v2.5h3.75v.313a.94.94 0 00.938.937h3.125a.941.941 0 00.937-.938V16.5H20V14H8.75v-.313zM5 16.5V14h2.5v2.5H5z" fill="#00303F"/></svg>