<svg width="26" height="27" fill="none" xmlns="http://www.w3.org/2000/svg"><path d="M8.696 20.957c0 .105-.12.19-.272.19-.173.015-.294-.07-.294-.19 0-.106.12-.19.273-.19.157-.016.293.068.293.19zm-1.63-.238c-.037.106.068.227.226.259.136.052.293 0 .325-.106.031-.105-.069-.227-.226-.274-.136-.037-.288.016-.325.121zm2.317-.09c-.152.038-.257.138-.241.26.016.105.152.173.31.136.151-.037.256-.137.24-.242-.015-.1-.157-.17-.309-.153zM12.833.423C5.561.422 0 5.975 0 13.289c0 5.848 3.659 10.853 8.885 12.614.671.121.907-.295.907-.638 0-.327-.016-2.13-.016-3.238 0 0-3.67.791-4.44-1.571 0 0-.597-1.535-1.457-1.93 0 0-1.2-.828.084-.813 0 0 1.305.106 2.023 1.361 1.148 2.036 3.072 1.45 3.822 1.102.12-.844.461-1.429.838-1.777-2.93-.327-5.886-.754-5.886-5.827 0-1.45.398-2.178 1.237-3.106-.137-.343-.582-1.756.136-3.58C7.23 5.541 9.75 7.308 9.75 7.308a12.247 12.247 0 013.292-.448c1.117 0 2.244.153 3.292.448 0 0 2.521-1.772 3.617-1.424.718 1.83.272 3.238.136 3.58.839.934 1.352 1.662 1.352 3.107 0 5.089-3.087 5.495-6.017 5.827.482.417.89 1.208.89 2.447 0 1.777-.015 3.976-.015 4.409 0 .342.241.759.907.638C22.446 24.142 26 19.137 26 13.289 26 5.975 20.103.422 12.832.422zM5.094 18.61c-.068.053-.052.174.037.274.084.085.204.122.272.053.069-.053.053-.174-.036-.274-.084-.085-.205-.122-.273-.053zm-.566-.427c-.037.068.016.153.12.206.084.052.19.036.226-.037.037-.069-.016-.153-.12-.206-.105-.032-.19-.016-.226.037zm1.698 1.877c-.083.069-.052.227.069.327.12.121.272.137.34.053.068-.069.037-.227-.068-.327-.115-.121-.272-.137-.34-.053zm-.597-.775c-.084.053-.084.19 0 .311s.225.174.293.121c.084-.068.084-.205 0-.327-.073-.12-.21-.174-.293-.105z" fill="#CDAC81"/></svg>