<svg width="22" height="19" fill="none" xmlns="http://www.w3.org/2000/svg"><path d="M20.167 2.375H1.833C.821 2.375 0 3.172 0 4.156v10.688c0 .984.82 1.781 1.833 1.781h18.334c1.012 0 1.833-.797 1.833-1.781V4.156c0-.984-.82-1.781-1.833-1.781zM4.889 12.32v1.485a.452.452 0 01-.458.445H2.903a.452.452 0 01-.459-.445V12.32c0-.246.206-.445.459-.445H4.43c.253 0 .458.2.458.445zm3.667 0v1.485a.452.452 0 01-.459.445H6.57a.452.452 0 01-.458-.445V12.32c0-.246.205-.445.458-.445h1.528c.253 0 .459.2.459.445zm3.666 0v1.485a.452.452 0 01-.458.445h-1.528a.452.452 0 01-.458-.445V12.32c0-.246.205-.445.458-.445h1.528c.253 0 .458.2.458.445zm3.667 0v1.485a.452.452 0 01-.458.445h-1.528a.452.452 0 01-.459-.445V12.32c0-.246.206-.445.459-.445h1.528c.253 0 .458.2.458.445zm3.667 0v1.485a.452.452 0 01-.459.445H17.57a.452.452 0 01-.458-.445V12.32c0-.246.205-.445.458-.445h1.528c.253 0 .459.2.459.445zM6.722 8.758v1.484a.452.452 0 01-.458.445H4.736a.452.452 0 01-.458-.445V8.758c0-.246.205-.445.458-.445h1.528c.253 0 .458.199.458.445zm3.667 0v1.484a.452.452 0 01-.458.445H8.403a.452.452 0 01-.459-.445V8.758c0-.246.206-.445.459-.445H9.93c.253 0 .458.199.458.445zm3.667 0v1.484a.452.452 0 01-.459.445H12.07a.452.452 0 01-.458-.445V8.758c0-.246.205-.445.458-.445h1.528c.253 0 .459.199.459.445zm3.666 0v1.484a.452.452 0 01-.458.445h-1.528a.452.452 0 01-.458-.445V8.758c0-.246.205-.445.458-.445h1.528c.253 0 .458.199.458.445zM4.89 5.195V6.68a.452.452 0 01-.458.445H2.903a.452.452 0 01-.459-.445V5.195c0-.246.206-.445.459-.445H4.43c.253 0 .458.2.458.445zm11 0V6.68a.452.452 0 01-.458.445H6.569a.452.452 0 01-.458-.445V5.195c0-.246.205-.445.458-.445h8.862c.253 0 .458.2.458.445zm3.667 0V6.68a.452.452 0 01-.459.445H17.57a.452.452 0 01-.458-.445V5.195c0-.246.205-.445.458-.445h1.528c.253 0 .459.2.459.445z" fill="#CDAC81"/></svg>